<svg class="icon" viewBox="0 0 1024 1024" xmlns="http://www.w3.org/2000/svg" width="1000" height="1000"><path d="M512 989.867c-267.947 0-486.4-218.454-486.4-486.4s218.453-486.4 486.4-486.4 486.4 218.453 486.4 486.4-218.453 486.4-486.4 486.4zm0-904.534c-230.4 0-418.133 187.734-418.133 418.134S281.6 921.6 512 921.6s418.133-187.733 418.133-418.133S742.4 85.333 512 85.333z" fill="#333"/><path d="M390.827 512V372.053c0-25.6 29.013-42.666 51.2-29.013L563.2 413.013l121.173 69.974c22.187 13.653 22.187 46.08 0 59.733L563.2 610.987l-121.173 71.68c-22.187 13.653-51.2-3.414-51.2-29.014V512z" fill="#333"/></svg>